<?xml version="1.0" standalone="no"?>
<!DOCTYPE svg PUBLIC "-//W3C//DTD SVG 20010904//EN"
 "http://www.w3.org/TR/2001/REC-SVG-20010904/DTD/svg10.dtd">
<svg version="1.0" xmlns="http://www.w3.org/2000/svg"
 width="1743.000000pt" height="1612.000000pt" viewBox="0 0 1743.000000 1612.000000"
 preserveAspectRatio="xMidYMid meet">

<g transform="translate(0.000000,1612.000000) scale(0.100000,-0.100000)"
fill="#000000" stroke="none">
<path d="M151 16110 c-56 -5 -99 -14 -107 -22 -21 -20 -36 -5849 -31 -11388 4
-4736 4 -4687 60 -4698 40 -8 67 90 91 333 45 442 178 2310 381 5358 69 1033
125 1882 125 1887 0 5 21 3 47 -5 156 -48 881 43 1280 160 523 153 1089 476
1564 893 442 388 847 976 1078 1567 129 329 210 656 258 1035 26 208 25 811
-1 1020 -114 921 -459 1712 -1032 2370 -101 116 -339 353 -454 451 -691 590
-1600 960 -2525 1028 -191 15 -626 21 -734 11z m1159 -1272 c185 -50 491 -178
692 -289 847 -466 1486 -1277 1737 -2204 84 -308 107 -542 98 -998 -7 -345
-25 -516 -81 -742 -66 -266 -136 -453 -278 -735 -298 -595 -660 -1017 -1210
-1406 -327 -232 -642 -397 -943 -493 -149 -48 -432 -124 -520 -141 -33 -6 -70
-13 -82 -16 -23 -4 -23 -4 -23 125 0 156 -8 16 150 2596 223 3625 260 4175
286 4308 6 28 7 29 53 22 25 -3 80 -15 121 -27z"/>
<path d="M8503 15131 c-43 -32 -134 -107 -203 -166 -560 -478 -1002 -1021
-1246 -1530 -172 -359 -216 -572 -216 -1030 1 -589 54 -829 428 -1915 315
-918 384 -1125 434 -1309 120 -441 197 -896 236 -1401 21 -284 29 -956 15
-1335 -34 -893 -102 -1241 -336 -1700 -211 -415 -491 -814 -971 -1381 -260
-307 -326 -394 -296 -394 37 0 515 312 751 490 228 173 371 298 596 524 600
602 858 1117 1019 2033 91 520 140 1253 118 1761 -12 266 -47 631 -83 872 -89
590 -236 1067 -614 1990 -426 1038 -521 1313 -595 1710 -28 145 -38 445 -21
587 33 268 129 551 326 959 143 298 288 546 593 1018 152 235 175 276 154 276
-6 0 -46 -27 -89 -59z"/>
<path d="M12367 10963 c-3 -307 -9 -570 -12 -585 -10 -37 -28 -35 -78 8 -57
48 -185 110 -282 135 -170 45 -417 35 -569 -22 -304 -113 -543 -450 -606 -853
-16 -100 -13 -326 5 -431 63 -358 271 -644 552 -758 115 -47 189 -61 323 -61
237 0 426 72 603 230 54 47 99 85 101 83 1 -2 10 -48 19 -102 22 -129 36 -153
90 -168 58 -16 253 -7 271 12 11 11 12 41 5 149 -5 74 -12 762 -15 1528 l-7
1392 -197 0 -198 0 -5 -557z m-419 -749 c91 -19 195 -70 263 -131 66 -60 114
-159 136 -283 23 -132 23 -561 0 -668 -33 -150 -125 -267 -266 -341 -97 -50
-180 -71 -291 -71 -308 0 -509 203 -565 570 -35 227 -6 435 85 626 37 76 64
116 108 161 127 129 323 180 530 137z"/>
<path d="M9744 11331 c-47 -22 -109 -89 -125 -139 -19 -57 -7 -144 27 -198 61
-100 190 -142 288 -94 95 46 168 162 151 241 -19 86 -79 165 -147 193 -51 22
-143 20 -194 -3z"/>
<path d="M14384 10534 c-168 -28 -280 -84 -411 -208 -191 -180 -287 -353 -345
-621 -32 -145 -32 -422 0 -547 50 -202 139 -365 263 -484 148 -141 318 -223
539 -259 247 -42 787 15 871 91 24 22 26 117 3 195 -26 89 -27 89 -159 55
-109 -28 -328 -48 -494 -44 -138 3 -164 7 -229 30 -152 55 -276 163 -351 307
-41 78 -83 209 -96 294 l-7 47 742 0 742 0 -5 198 c-4 169 -8 211 -30 293 -65
245 -188 431 -364 549 -131 88 -258 121 -461 119 -70 -1 -163 -7 -208 -15z
m346 -293 c124 -39 206 -114 277 -256 45 -89 83 -189 83 -218 0 -37 -40 -66
-106 -77 -71 -12 -1004 -13 -1004 -2 0 18 68 210 90 252 82 163 225 293 354
320 65 14 233 4 306 -19z"/>
<path d="M9650 9475 l0 -1045 200 0 200 0 0 1045 0 1045 -200 0 -200 0 0
-1045z"/>
<path d="M1067 7190 c-15 -156 -42 -1423 -53 -2380 -9 -873 14 -2188 46 -2630
10 -133 44 -387 53 -396 4 -5 31 254 47 446 30 383 39 1183 20 2000 -25 1094
-82 2798 -99 2965 l-7 70 -7 -75z"/>
<path d="M1636 7095 c-51 -240 -57 -3097 -6 -3230 12 -31 36 -33 44 -2 10 41
25 207 36 391 30 530 -16 2731 -59 2849 -8 21 -9 20 -15 -8z"/>
<path d="M14939 4888 c0 -314 -4 -478 -10 -468 -5 8 -26 43 -47 78 -55 92
-113 154 -196 210 -180 121 -380 134 -575 40 -91 -45 -233 -186 -283 -283 -66
-128 -83 -201 -83 -360 0 -119 4 -151 23 -215 69 -221 225 -394 413 -460 89
-31 233 -38 319 -15 162 42 316 166 397 320 l42 80 1 -207 0 -208 25 0 25 0 0
985 0 985 -25 0 -25 0 -1 -482z m-419 -158 c170 -50 329 -220 384 -411 58
-200 27 -438 -77 -601 -165 -259 -497 -339 -743 -180 -181 118 -285 325 -285
567 0 188 57 345 171 468 150 163 341 217 550 157z"/>
<path d="M15442 5313 c2 -22 9 -29 31 -31 24 -3 27 0 27 27 0 28 -3 31 -31 31
-27 0 -30 -3 -27 -27z"/>
<path d="M10290 5203 c-62 -10 -184 -58 -237 -92 -82 -53 -166 -148 -195 -218
-32 -81 -32 -210 -1 -268 71 -128 187 -200 571 -351 119 -47 256 -106 304
-132 96 -50 189 -126 215 -176 57 -109 23 -245 -87 -350 -112 -107 -259 -158
-455 -158 -194 0 -335 49 -451 155 -54 49 -114 150 -114 192 0 13 -3 37 -6 54
-5 25 -11 31 -32 31 -24 0 -25 -1 -19 -59 7 -82 46 -161 114 -232 72 -75 143
-119 264 -161 91 -31 99 -33 249 -32 141 0 162 2 235 27 223 74 372 231 383
404 7 99 -17 155 -102 238 -89 88 -190 141 -488 259 -120 47 -251 102 -290
122 -191 96 -262 178 -260 302 2 166 150 324 352 377 84 22 235 23 317 2 196
-51 340 -195 359 -358 6 -56 8 -59 34 -59 27 0 27 1 22 53 -23 247 -276 440
-571 436 -47 -1 -97 -4 -111 -6z"/>
<path d="M11460 4965 l0 -164 -102 -3 c-102 -3 -103 -3 -103 -28 0 -25 1 -25
103 -28 l102 -3 0 -518 c0 -559 1 -576 55 -660 62 -100 191 -161 335 -161 46
0 50 2 50 24 0 23 -5 25 -67 31 -154 14 -235 60 -285 162 l-33 68 -3 527 -3
528 160 0 161 0 0 30 0 30 -160 0 -160 0 0 165 0 165 -25 0 -25 0 0 -165z"/>
<path d="M12300 4332 c0 -397 3 -488 15 -537 48 -184 219 -343 413 -384 278
-58 560 98 643 358 21 63 22 90 27 554 l4 487 -30 0 -31 0 -3 -497 c-3 -489
-3 -499 -25 -553 -88 -213 -300 -330 -543 -299 -94 12 -196 59 -268 124 -57
51 -92 104 -124 188 -20 50 -21 70 -19 545 l2 492 -30 0 -31 0 0 -478z"/>
<path d="M15442 4103 l3 -708 25 0 25 0 3 708 2 707 -30 0 -30 0 2 -707z"/>
<path d="M16441 4795 c-110 -31 -181 -75 -276 -170 -100 -99 -146 -175 -187
-305 -19 -64 -23 -96 -23 -215 0 -119 4 -151 23 -215 69 -221 225 -394 413
-460 89 -31 233 -38 319 -15 214 55 385 230 460 470 30 94 38 273 17 370 -29
136 -87 253 -174 354 -54 63 -172 142 -254 171 -84 29 -241 36 -318 15z m289
-65 c170 -50 329 -220 384 -411 58 -200 27 -438 -77 -601 -165 -259 -497 -339
-743 -180 -181 118 -285 325 -285 567 0 188 57 345 171 468 150 163 341 217
550 157z"/>
</g>
</svg>
